<?xml version="1.0" encoding="iso-8859-1"?>
<!-- Generator: Adobe Illustrator 19.0.0, SVG Export Plug-In . SVG Version: 6.00 Build 0)  -->
<svg xmlns="http://www.w3.org/2000/svg" xmlns:xlink="http://www.w3.org/1999/xlink" version="1.1" id="Capa_1" x="0px" y="0px" viewBox="0 0 274.4 274.4" style="enable-background:new 0 0 274.4 274.4;" xml:space="preserve" width="512px" height="512px">
<g>
	<g>
		<path d="M273.2,3.6V3.2c-0.4-0.4-0.4-1.2-1.2-1.6c-0.4-0.4-0.8-0.8-1.6-1.2H270c-0.4,0-0.8-0.4-1.2-0.4h-0.4c-0.4,0-1.2,0-1.6,0.4    L4.4,101.2C2,102,0.8,104,0.8,106.4c0,2.4,2,4,4,4.8l130.8,27.2l26.8,132c0.4,2.4,2.4,4,4.8,4h0.4c2,0,4-1.2,4.8-3.2L273.2,6.8    c0.4-0.4,0.4-1.2,0.4-1.6V4.8C273.6,4.4,273.6,4,273.2,3.6z M24.4,104.8l223.2-86.4l-108.8,110L24.4,104.8z M169.6,250.8    l-23.2-115.2L255.2,26L169.6,250.8z" fill="#9b9b9b"/>
	</g>
</g>
<g>
</g>
<g>
</g>
<g>
</g>
<g>
</g>
<g>
</g>
<g>
</g>
<g>
</g>
<g>
</g>
<g>
</g>
<g>
</g>
<g>
</g>
<g>
</g>
<g>
</g>
<g>
</g>
<g>
</g>
</svg>
