<?xml version="1.0" encoding="iso-8859-1"?>
<!-- Generator: Adobe Illustrator 19.0.0, SVG Export Plug-In . SVG Version: 6.00 Build 0)  -->
<svg version="1.1" id="Capa_1" xmlns="http://www.w3.org/2000/svg" xmlns:xlink="http://www.w3.org/1999/xlink" x="0px" y="0px"
	 viewBox="0 0 512 512" style="enable-background:new 0 0 512 512;" xml:space="preserve">
<g>
	<g>
		<path d="M447.333,209v-85v-0.333V123.5V123h-94v0.5h-1V209H159.667v-85.5h-1V123h-94v0.5v0.167V124v85H0v94h64.667v85v0.333v0.167
			v0.5h94v-0.5h1V303h192.666v85.5h1v0.5h94v-0.5v-0.167V388v-85H512v-94H447.333z M64.667,273H30v-34h34.667V273z M129.667,358.5
			h-1h-34v-0.167V358V154v-0.333V153.5h34h1V358.5z M352.333,273H159.667v-34h192.666V273z M417.333,153.667V154v204v0.333v0.167
			h-34h-1v-205h1h34V153.667z M482,273h-34.667v-34H482V273z"/>
	</g>
</g>
<g>
</g>
<g>
</g>
<g>
</g>
<g>
</g>
<g>
</g>
<g>
</g>
<g>
</g>
<g>
</g>
<g>
</g>
<g>
</g>
<g>
</g>
<g>
</g>
<g>
</g>
<g>
</g>
<g>
</g>
</svg>
